<?xml version="1.0" encoding="UTF-8" standalone="no"?>
<svg width="111px" height="40px" viewBox="0 0 111 40" version="1.1" xmlns="http://www.w3.org/2000/svg" xmlns:xlink="http://www.w3.org/1999/xlink">
    <!-- Generator: Sketch 46.2 (44496) - http://www.bohemiancoding.com/sketch -->
    <title>Page 1</title>
    <desc>Created with Sketch.</desc>
    <defs>
        <linearGradient x1="100%" y1="50%" x2="-14.0136719%" y2="50%" id="linearGradient-1">
            <stop stop-color="#E3C1F9" offset="0%"></stop>
            <stop stop-color="#747DC5" offset="100%"></stop>
        </linearGradient>
    </defs>
    <g id="Page-1" stroke="none" stroke-width="1" fill="none" fill-rule="evenodd">
        <g id="Desktop-Copy-4" transform="translate(-29.000000, -34.000000)">
            <g id="Group-8">
                <g id="Page-1" transform="translate(29.000000, 34.000000)">
                    <path d="M0,18.6584786 C0,12.7947702 4.16468562,8 11.1837234,8 C12.8804471,8 15.0399137,8.39619651 17.1993804,9.7044374 C18.124866,10.2583201 18.2405518,11.1703645 17.5849994,12.0419968 L17.1222565,12.6362916 C16.5052661,13.5079239 15.8111518,13.5475436 14.8471042,13.0721078 C13.3817519,12.3193344 11.9163995,12.2797147 11.4536567,12.2797147 C7.71238077,12.2797147 4.9744856,14.8549921 4.9744856,18.5 C4.9744856,22.18542 7.71238077,24.7606973 11.4536567,24.7606973 C11.9163995,24.7606973 13.3817519,24.681458 14.8471042,23.9683043 C15.8111518,23.4928685 16.543828,23.5316957 17.1222565,24.3645008 L17.5849994,24.9976228 C18.2027611,25.8700475 18.0099516,26.9001585 16.7366375,27.5736926 C14.7699804,28.6830428 12.7647614,29 11.1837234,29 C4.31893323,29 0,24.4033281 0,18.6584786" id="Fill-1" fill="#747DC5"></path>
                    <path d="M36.1424304,18.5003962 C36.1041818,14.8948719 33.8475157,12.2402551 30.4426271,12.2402551 C26.9620064,12.2402551 24.9348317,15.0929776 24.9348317,18.5003962 C24.9348317,21.9474359 26.9620064,24.7605373 30.4426271,24.7605373 C33.8475157,24.7605373 36.1041818,22.1059205 36.1424304,18.5003962 M20,18.5003962 C20,12.6364665 23.8638715,8 29.4864126,8 C32.0490675,8 34.4212444,8.99052866 36.0659333,11.4470397 L36.0659333,10.1395419 C36.0659333,9.06977095 36.639662,8.43583261 37.6723736,8.43583261 L39.3553111,8.43583261 C40.3880227,8.43583261 41,9.06977095 41,10.1395419 L41,26.9008717 C41,27.9706426 40.3880227,28.5649598 39.3553111,28.5649598 L37.6723736,28.5649598 C36.639662,28.5649598 36.0659333,27.9706426 36.0659333,26.9008717 L36.0659333,25.5529603 C34.4212444,28.0094713 32.0490675,29 29.4864126,29 C23.8638715,29 20,24.3643259 20,18.5003962" id="Fill-3" fill="#747DC5"></path>
                    <path d="M63.0651683,17.891559 C63.0651683,14.6110839 61.0762422,11.8646395 57.5573729,11.8646395 C54.1907329,11.8646395 51.8958182,14.4203586 51.8575696,17.891559 C51.8958182,21.3627595 54.1907329,23.9184786 57.5573729,23.9184786 C61.0762422,23.9184786 63.0651683,21.2101793 63.0651683,17.891559 M51.9340667,24.6813798 L51.9340667,25.9790747 C51.9340667,27.0089913 51.360338,27.5811672 50.3276264,27.5811672 L48.6446889,27.5811672 C47.6119773,27.5811672 47,27.0089913 47,25.9790747 L47,1.60209253 C47,0.572175903 47.6119773,0 48.6446889,0 L50.3276264,0 C51.360338,0 51.9340667,0.572175903 51.9340667,1.60209253 L51.9340667,11.1009754 C53.5787556,8.73598169 55.9509325,7.78235519 58.5135874,7.78235519 C64.1361285,7.78235519 68,12.2460901 68,17.891559 C68,23.537028 64.1361285,28 58.5135874,28 C55.9509325,28 53.5787556,27.0463735 51.9340667,24.6813798" id="Fill-5" fill="#747DC5"></path>
                    <path d="M87.1424304,18.5003962 C87.1041818,14.8948719 84.8475157,12.2402551 81.4426271,12.2402551 C77.9620064,12.2402551 75.9348317,15.0929776 75.9348317,18.5003962 C75.9348317,21.9474359 77.9620064,24.7605373 81.4426271,24.7605373 C84.8475157,24.7605373 87.1041818,22.1059205 87.1424304,18.5003962 M71,18.5003962 C71,12.6364665 74.8638715,8 80.4864126,8 C83.0490675,8 85.4212444,8.99052866 87.0659333,11.4470397 L87.0659333,10.1395419 C87.0659333,9.06977095 87.639662,8.43583261 88.6723736,8.43583261 L90.3553111,8.43583261 C91.3880227,8.43583261 92,9.06977095 92,10.1395419 L92,26.9008717 C92,27.9706426 91.3880227,28.5649598 90.3553111,28.5649598 L88.6723736,28.5649598 C87.639662,28.5649598 87.0659333,27.9706426 87.0659333,26.9008717 L87.0659333,25.5529603 C85.4212444,28.0094713 83.0490675,29 80.4864126,29 C74.8638715,29 71,24.3643259 71,18.5003962" id="Fill-8" fill="#747DC5"></path>
                    <path d="M96.1889084,25.0378854 C95.6888196,23.9681144 96.2273767,23.2153126 97.2660227,22.9379646 L98.2662003,22.7002377 C99.1894412,22.4625108 99.6510616,22.8983435 100.305793,23.6511452 C100.997455,24.5228105 102.190743,25.0775065 103.537136,25.0775065 C105.229745,25.0775065 106.422264,24.126599 106.422264,22.8587223 C106.422264,21.7889514 105.614428,21.2342553 104.344972,20.7588016 L101.844528,19.8475152 C99.344084,19.0542998 96.6505288,17.469454 96.6505288,14.1808988 C96.6505288,10.6149957 99.4971881,8 103.537136,8 C105.999112,8 108.268746,8.83204407 109.615139,11.2093129 C110.269101,12.2394627 109.730544,13.0715067 108.653429,13.3488548 L107.768657,13.5865816 C106.845416,13.8243085 106.345327,13.4677182 105.729833,12.7941587 C105.152808,12.0809781 104.38344,11.8828723 103.614073,11.8828723 C102.113807,11.8828723 101.228265,12.8337799 101.228265,13.9827931 C101.228265,15.0525641 102.151506,15.6072601 103.229389,15.9638504 L105.845238,16.9155504 C109.730544,18.183427 110.961532,20.5210747 111,22.8191012 C111,26.8604581 107.537847,29 103.537136,29 C100.266556,29 97.4968329,27.652881 96.1889084,25.0378854" id="Fill-10" fill="#747DC5"></path>
                    <path d="M109.942843,40 C110.526554,40 111,39.5614286 111,39.0207143 L111,35.9792857 C111,35.4385714 110.526554,35 109.942843,35 L48.0571566,35 C47.4734458,35 47,35.4385714 47,35.9792857 L47,39.0207143 C47,39.5614286 47.4734458,40 48.0571566,40 L109.942843,40 Z" id="Fill-12" fill="url(#linearGradient-1)"></path>
                    <path d="M36,37 C36,38.65675 37.34325,40 39,40 C40.65675,40 42,38.65675 42,37 C42,35.34325 40.65675,34 39,34 C37.34325,34 36,35.34325 36,37" id="Fill-14" fill="#747DC5"></path>
                </g>
            </g>
        </g>
    </g>
</svg>